<?xml version="1.0" encoding="utf-8"?>
<!-- Generator: Adobe Illustrator 22.1.0, SVG Export Plug-In . SVG Version: 6.00 Build 0)  -->
<svg version="1.1" id="_x34_04" xmlns="http://www.w3.org/2000/svg" xmlns:xlink="http://www.w3.org/1999/xlink" x="0px" y="0px"
	 viewBox="0 0 3000 2025" style="enable-background:new 0 0 3000 2025;" xml:space="preserve">
<style type="text/css">
	.st0{fill:#393E46;}
	.st1{clip-path:url(#SVGID_2_);}
	.st2{opacity:8.000000e-02;clip-path:url(#SVGID_4_);fill:#379173;}
	.st3{clip-path:url(#SVGID_4_);fill:#379173;}
	.st4{clip-path:url(#SVGID_4_);}
	.st5{opacity:0.31;fill:#379173;}
	.st6{opacity:0.14;clip-path:url(#XMLID_4_);fill:#86B2E8;}
	.st7{fill:#4ECCA3;}
	.st8{fill:#FFFFFF;}
	.st9{opacity:0.14;clip-path:url(#XMLID_5_);fill:#86B2E8;}
	.st10{fill:#E2F0FE;}
	.st11{fill:#EEEEEE;}
	.st12{opacity:0.31;clip-path:url(#SVGID_2_);}
	.st13{fill:#379173;}
</style>
<rect class="st0" width="3000" height="2025"/>
<g>
	<defs>
		<rect id="SVGID_1_" width="3000" height="2025"/>
	</defs>
	<clipPath id="SVGID_2_">
		<use xlink:href="#SVGID_1_"  style="overflow:visible;"/>
	</clipPath>
	<g class="st1">
		<defs>
			<rect id="SVGID_3_" width="3000" height="2025"/>
		</defs>
		<clipPath id="SVGID_4_">
			<use xlink:href="#SVGID_3_"  style="overflow:visible;"/>
		</clipPath>
		<circle class="st2" cx="1520" cy="925.7" r="498.2"/>
		<circle class="st3" cx="1500" cy="908.4" r="498.2"/>
		<g class="st4">
			<path class="st5" d="M1124.6,1155.9l98.3-41.8l-50.6-119l-98.3,41.8l-2.5-5.8c-4.2-9.9-15.6-14.5-25.5-10.3l-18.9,8l-1.4-3.3
				c-1.6-3.9-6.1-5.6-9.9-4l-22.7,9.6c-3.9,1.6-5.6,6.1-4,9.9l1.4,3.3l-10.7,4.6l-1.4-3.3c-1.6-3.9-6.1-5.6-9.9-4l-22.7,9.6
				c-3.9,1.6-5.6,6.1-4,9.9l1.4,3.3L810,1121.1c-9.9,4.2-14.5,15.6-10.3,25.5l12.5,29.3l-44.2,18.8l7.8,18.3
				c-110.5,47.5-234.7,99.8-355.2,103.2c-51.6,1.5-151.7-17.6-242.5-162.1c-24.8-39.5-44.9-81.7-61.3-117.8
				c-2.8-6.3-5.6-13-8.5-20.1c-14.1-34.1-30-72.8-67.2-91.6c-53.2-26.8-100.6,3.3-138.8,27.5c-4.6,2.9-9.2,5.8-13.7,8.6
				c-12.2,7.4-24.7,15.5-36.8,23.3c-63.8,41.1-129.8,83.6-201.3,76.5c-64.6-6.4-122.2-49.1-154.2-114.2
				c-64-130.3-53.3-262.2,32.5-403c75.6-124.2,195.5-234.1,301.3-331.1c16-14.7,31.1-28.5,45.9-42.3c30.1-28,64-61.3,85.7-103
				C-13.9,19.6-10-31.4-27.7-72.7c-15.2-35.4-47.1-65.6-94.8-89.7c-77.1-39.1-159.3-55.5-244.2-48.9c-73.6,5.7-151.5,29-231.5,69.3
				c-143,72-270.7,184.4-387.4,295.2l-83,78.8l25.8,27.2l83-78.8C-845.2,71.5-720-38.8-581.4-108.6c75.6-38.1,148.8-60.1,217.5-65.4
				c78-6,153.5,9.1,224.4,45c39.6,20.1,65.6,44,77.3,71.1c13.1,30.5,9.5,70.7-9.7,107.6c-18.9,36.4-50.2,67-78,92.8
				c-14.7,13.7-29.8,27.5-45.7,42.1c-107.6,98.7-229.6,210.6-308,339.3c-43.5,71.5-68.5,139.4-76.5,207.8
				c-9,77.8,5.2,155.6,42.4,231.3c7.2,14.7,15.5,28.4,24.8,41c39.5,53.6,96.6,87.8,159.3,94c84.6,8.4,159.4-39.8,225.4-82.3
				c12.5-8,24.3-15.6,36.1-22.8c4.7-2.9,9.4-5.9,14.3-8.9c40.8-25.9,70-41.7,101.7-25.7c24.7,12.5,37.3,42.9,49.4,72.4
				c2.9,7.1,5.9,14.4,9.1,21.3c16.9,37.2,37.7,80.9,63.7,122.2c43.2,68.8,136.5,183.6,275.4,179.6c127.5-3.6,255.3-57.4,368.8-106.2
				l7.8,18.4l44.2-18.8l12.8,30.1c4.2,9.9,15.6,14.5,25.5,10.3l133.2-56.6l1.4,3.3c1.6,3.9,6.1,5.6,9.9,4l22.7-9.6
				c3.9-1.6,5.6-6.1,4-9.9l-1.4-3.3l10.7-4.6l1.4,3.3c1.6,3.9,6.1,5.6,9.9,4l22.7-9.6c3.9-1.6,5.6-6.1,4-9.9l-1.4-3.3l18.9-8
				c9.9-4.2,14.5-15.6,10.3-25.5L1124.6,1155.9z"/>
			<g>
				<g>
					<g>
						<g>
							<g>
								<defs>
									<path id="XMLID_1_" d="M1068.2,1177.4c1.6,3.9,6.1,5.6,9.9,4l22.7-9.6c3.9-1.6,5.6-6.1,4-9.9l-1.4-3.3l18.9-8
										c9.9-4.2,14.5-15.6,10.3-25.5L1077,994.4c-4.2-9.9-15.6-14.5-25.5-10.3l-18.9,8l-1.4-3.3c-1.6-3.9-6.1-5.6-9.9-4l-22.7,9.6
										c-3.9,1.6-5.6,6.1-4,9.9l1.4,3.3l-10.7,4.6l-1.4-3.3c-1.6-3.9-6.1-5.6-9.9-4l-22.7,9.6c-3.9,1.6-5.6,6.1-4,9.9l1.4,3.3
										l-133.2,56.6c-9.9,4.2-14.5,15.6-10.3,25.5l55.6,130.7c4.2,9.9,15.6,14.5,25.5,10.3l133.2-56.6l1.4,3.3
										c1.6,3.9,6.1,5.6,9.9,4l22.7-9.6c3.9-1.6,5.6-6.1,4-9.9l-1.4-3.3l10.7-4.6L1068.2,1177.4z"/>
								</defs>
								<use xlink:href="#XMLID_1_"  style="overflow:visible;fill:#E2F0FE;"/>
								<clipPath id="XMLID_4_">
									<use xlink:href="#XMLID_1_"  style="overflow:visible;"/>
								</clipPath>
								<polyline class="st6" points="831,1174.6 1123.6,1051.2 1068.1,947.4 773.1,1076.9 799.7,1146.6 831,1174.6 								"/>
							</g>
							
								<rect x="1089.3" y="985.4" transform="matrix(0.3913 0.9203 -0.9203 0.3913 1658.4274 -429.5998)" class="st7" width="129.3" height="106.8"/>
							<g>
								
									<rect x="1154.8" y="968.6" transform="matrix(0.3913 0.9203 -0.9203 0.3913 1612.4595 -473.9143)" class="st8" width="19.3" height="26.5"/>
								
									<rect x="1167.4" y="998.3" transform="matrix(0.3913 0.9203 -0.9203 0.3913 1647.4471 -467.4611)" class="st8" width="19.3" height="26.5"/>
								
									<rect x="1180" y="1028" transform="matrix(0.3913 0.9203 -0.9203 0.3913 1682.442 -461.0055)" class="st8" width="19.3" height="26.5"/>
								
									<rect x="1192.6" y="1057.6" transform="matrix(0.3913 0.9203 -0.9203 0.3913 1717.402 -454.5615)" class="st8" width="19.3" height="26.5"/>
							</g>
						</g>
						
							<rect x="935.6" y="1087.4" transform="matrix(0.3913 0.9203 -0.9203 0.3913 1630.6097 -278.7634)" class="st7" width="180.9" height="11.6"/>
					</g>
					
						<rect x="769.1" y="1160.1" transform="matrix(0.3913 0.9203 -0.9203 0.3913 1583.1449 -21.4239)" class="st7" width="77.4" height="51.7"/>
				</g>
				<path class="st7" d="M-511.9,969.7c-9.3-12.6-17.6-26.3-24.8-41c-37.1-75.6-51.4-153.4-42.4-231.3
					c7.9-68.4,32.9-136.4,76.5-207.8c78.4-128.7,200.4-240.6,308-339.3c16-14.6,31-28.4,45.7-42.1c27.8-25.8,59-56.5,78-92.8
					c19.2-36.8,22.8-77.1,9.7-107.6c-11.6-27.1-37.6-51-77.3-71.1c-70.9-35.9-146.4-51-224.4-45c-68.7,5.3-141.9,27.3-217.5,65.4
					C-719.1-73.1-844.3,37.2-958.9,146.1l-83,78.8l-25.8-27.2l83-78.8C-868,8-740.3-104.4-597.4-176.4
					c80-40.3,157.8-63.6,231.5-69.3c84.9-6.6,167.1,9.9,244.2,48.9C-74-172.6-42-142.4-26.8-107C-9.1-65.6-13-14.7-37.7,32.7
					c-21.7,41.7-55.6,75-85.7,103c-14.8,13.8-29.9,27.6-45.9,42.3C-275.1,275-395,385-470.6,509.1c-85.8,140.9-96.4,272.7-32.5,403
					c32,65.1,89.6,107.8,154.2,114.2c71.6,7.1,137.5-35.4,201.3-76.5c12.1-7.8,24.6-15.9,36.8-23.3c4.5-2.8,9.1-5.7,13.7-8.6
					c38.1-24.2,85.6-54.4,138.8-27.5C79,909.2,94.9,947.9,109,982c2.9,7.1,5.7,13.8,8.5,20.1c16.4,36.1,36.5,78.3,61.3,117.8
					c90.8,144.5,190.9,163.6,242.5,162.1c123.7-3.5,251.4-58.5,364.1-107.1l16.3-7l14.8,34.5l-16.3,7
					c-115.8,49.9-246.9,106.4-377.9,110.1c-138.8,4-232.1-110.8-275.4-179.6c-26-41.3-46.8-85-63.7-122.2
					c-3.1-6.9-6.1-14.2-9.1-21.3c-12.1-29.4-24.7-59.9-49.4-72.4c-31.8-16-60.9-0.2-101.7,25.7c-4.8,3.1-9.6,6.1-14.3,8.9
					c-11.8,7.2-23.6,14.8-36.1,22.8c-66,42.5-140.8,90.7-225.4,82.3C-415.4,1057.6-472.4,1023.3-511.9,969.7z"/>
			</g>
		</g>
		<g class="st4">
			<path class="st5" d="M3873.9,1420c-60.2,0.3-138.8-40.1-178.6-131.3c-49.1-112.5-23.5-233.6,1.1-350.8c1.9-8.9,3.8-17.9,5.6-26.7
				l1.4-6.8c28-135.5,57-275.7,57.5-416.8c0.3-86.1-16.9-174-48.3-247.4c-37.6-87.9-94.7-152.6-165.1-187.4
				c-66.1-32.6-140.3-35.7-198.5-8.5c-51.8,24.3-87,69.1-101.6,129.6c-24.2,100-4.4,204.4,14.6,305.4c2.5,13,4.9,25.8,7.2,38.6
				c1.3,6.9,2.5,13.9,3.8,20.9c26.7,145.6,57,310.6-40.2,432.1c-29.7,37.2-63,56.5-101.8,59.2c-101.3,7-217-102.8-309.9-191
				c-36.2-34.4-67.5-64.1-94.1-83.3c-167.7-121.6-317.7-161-458-120.1l-11.5-24.8l-52.5,24.2l-10.6-23.1c-4-8.8-14.4-12.6-23.2-8.6
				l-134.3,62l-2.6-5.7c-2.1-4.5-7.5-6.5-12-4.4l-132.5,61.2c-4.5,2.1-6.5,7.5-4.4,12l2.6,5.7l-58.2,26.9c-8.8,4-12.6,14.4-8.6,23.2
				l17.5,37.8l-133.1,61.8c-10.7,4.9-15.4,17.6-10.4,28.3c4.9,10.7,17.6,15.4,28.3,10.4l133.1-61.7l17.7,38.3
				c4,8.8,14.4,12.6,23.2,8.6l58.2-26.9l2.6,5.7c2.1,4.5,7.5,6.5,12,4.4l132.5-61.2c4.5-2.1,6.5-7.5,4.4-12l-2.6-5.7l134.3-62
				c8.8-4,12.6-14.4,8.6-23.2l-8-17.2l-2.7-5.8l52.5-24.2l-12.8-27.8c134-38,278.2,0.7,440,118.2c25.6,18.6,56.5,47.9,92.3,81.8
				c95.5,90.6,214.3,203.3,323.4,195.8c43.4-3,81.9-25.1,114.5-65.8c102.2-127.8,71.2-297.1,43.8-446.4c-1.3-7-2.6-13.9-3.8-20.8
				c-2.3-12.8-4.8-25.7-7.2-38.7c-18.7-99.2-38.1-201.7-14.8-297.9c13.3-55.1,45.1-95.7,91.9-117.6c53.4-25,121.8-21.9,183.1,8.3
				c66.6,32.8,120.8,94.5,156.7,178.4c30.5,71.3,47.1,156.7,46.9,240.4c-0.5,139.3-29.3,278.6-57.1,413.3l-1.4,6.8
				c-1.8,8.9-3.7,17.7-5.6,26.7c-25.2,119.9-51.3,243.8,0,361.5c17.1,39.2,44.7,74.7,77.7,100.1c36,27.7,76.6,42.1,117.2,41.9
				L3873.9,1420z"/>
			<g>
				<g>
					<g>
						<g>
							<defs>
								<path id="XMLID_2_" d="M2196.7,576.8l53.1,115c4,8.8,0.2,19.2-8.6,23.2l-341.4,157.6c-8.8,4-19.2,0.2-23.2-8.6l-53.1-115
									c-4-8.8-0.2-19.2,8.6-23.2l341.4-157.6C2182.3,564.2,2192.7,568,2196.7,576.8z"/>
							</defs>
							<use xlink:href="#XMLID_2_"  style="overflow:visible;fill:#E2F0FE;"/>
							<clipPath id="XMLID_5_">
								<use xlink:href="#XMLID_2_"  style="overflow:visible;"/>
							</clipPath>
							<polygon class="st9" points="2229.6,634.3 1825.9,816 1793.1,715.2 1936.4,608.4 2210.8,533.1 							"/>
						</g>
						<path class="st7" d="M2036.7,624.6l73,158.1c2.1,4.5,0.1,9.9-4.4,12l-132.5,61.2c-4.5,2.1-9.9,0.1-12-4.4l-73-158.1
							c-2.1-4.5-0.1-9.9,4.4-12l132.5-61.2C2029.2,618,2034.6,620,2036.7,624.6z"/>
						<g>
							<path class="st10" d="M2093.3,775.9L2093.3,775.9c1.5,3.3,0.1,7.1-3.2,8.6L1975,837.7c-3.3,1.5-7.1,0.1-8.6-3.2v0
								c-1.5-3.3-0.1-7.1,3.2-8.6l115.1-53.1C2087.9,771.2,2091.8,772.7,2093.3,775.9z"/>
							<path class="st10" d="M2080.9,749L2080.9,749c1.5,3.3,0.1,7.1-3.2,8.6l-115.1,53.1c-3.3,1.5-7.1,0.1-8.6-3.2l0,0
								c-1.5-3.3-0.1-7.1,3.2-8.6l115.1-53.1C2075.5,744.3,2079.4,745.7,2080.9,749z"/>
							<path class="st10" d="M2068.5,722.1L2068.5,722.1c1.5,3.3,0.1,7.1-3.2,8.6l-115.1,53.1c-3.3,1.5-7.1,0.1-8.6-3.2l0,0
								c-1.5-3.3-0.1-7.1,3.2-8.6l115.1-53.1C2063.1,717.4,2067,718.8,2068.5,722.1z"/>
							<path class="st10" d="M2056,695.2L2056,695.2c1.5,3.3,0.1,7.1-3.2,8.6L1937.7,757c-3.3,1.5-7.1,0.1-8.6-3.2l0,0
								c-1.5-3.3-0.1-7.1,3.2-8.6l115.1-53.1C2050.7,690.5,2054.5,691.9,2056,695.2z"/>
							<path class="st10" d="M2043.6,668.3L2043.6,668.3c1.5,3.3,0.1,7.1-3.2,8.6l-115.1,53.1c-3.3,1.5-7.1,0.1-8.6-3.2l0,0
								c-1.5-3.3-0.1-7.1,3.2-8.6l115.1-53.1C2038.2,663.6,2042.1,665,2043.6,668.3z"/>
							<path class="st10" d="M2031.2,641.4L2031.2,641.4c1.5,3.3,0.1,7.1-3.2,8.6l-115.1,53.1c-3.3,1.5-7.1,0.1-8.6-3.2l0,0
								c-1.5-3.3-0.1-7.1,3.2-8.6l115.1-53.1C2025.8,636.7,2029.7,638.1,2031.2,641.4z"/>
						</g>
						<path class="st7" d="M1841.2,787.2l17.9,38.7l-133.2,61.5c-10.7,4.9-23.4,0.3-28.3-10.4l0,0c-4.9-10.7-0.3-23.4,10.4-28.3
							L1841.2,787.2z"/>
					</g>
					
						<rect x="2211.6" y="593.3" transform="matrix(-0.4191 -0.9079 0.9079 -0.4191 2627.4194 2925.3977)" class="st7" width="75.9" height="57.8"/>
				</g>
				<path class="st7" d="M2253.5,606.1c145.4-49.8,301-12.4,475.8,114.5c26.6,19.3,57.9,49,94.1,83.3
					c92.9,88.2,208.6,197.9,309.9,191c38.8-2.7,72-22,101.8-59.2c97.1-121.5,66.9-286.5,40.2-432.1c-1.3-7-2.6-14-3.8-20.9
					c-2.3-12.7-4.7-25.6-7.2-38.6c-19.1-101-38.8-205.5-14.6-305.4c14.6-60.5,49.8-105.3,101.6-129.6
					c58.2-27.2,132.4-24.1,198.5,8.5c70.4,34.7,127.6,99.5,165.1,187.4c31.4,73.5,48.6,161.3,48.3,247.4
					c-0.5,141.1-29.5,281.3-57.5,416.8l-1.4,6.8c-1.8,8.9-3.7,17.8-5.6,26.7c-24.6,117.1-50.2,238.2-1.1,350.8
					c39.8,91.2,118.3,131.7,178.6,131.3l0.1,17.8c-40.7,0.2-81.2-14.3-117.2-41.9c-33-25.4-60.6-60.9-77.7-100.1
					c-51.3-117.7-25.2-241.7,0-361.5c1.9-8.9,3.8-17.8,5.6-26.7l1.4-6.8c27.9-134.7,56.7-274,57.1-413.3
					c0.3-83.7-16.4-169.1-46.9-240.4c-35.9-83.9-90.1-145.6-156.7-178.4c-61.3-30.2-129.7-33.3-183.1-8.3
					c-46.8,21.9-78.5,62.6-91.9,117.6c-23.3,96.2-3.9,198.8,14.8,297.9c2.5,13,4.9,25.9,7.2,38.7c1.3,6.9,2.5,13.8,3.8,20.8
					c27.4,149.3,58.4,318.6-43.8,446.4c-32.6,40.7-71.1,62.9-114.5,65.8c-109.1,7.5-227.9-105.3-323.4-195.8
					c-35.8-33.9-66.7-63.3-92.3-81.8c-169.8-123.2-320.1-159.8-459.6-112L2253.5,606.1z"/>
			</g>
		</g>
		<g class="st4">
			<path class="st11" d="M1470.2,1120.9c1.7-3.9,4-7.3,6.9-10.3c2.9-2.9,6.3-5.2,10.3-6.9c3.9-1.7,8.1-2.5,12.6-2.5
				s8.7,0.8,12.6,2.5c3.9,1.7,7.3,4,10.3,6.9c2.9,2.9,5.2,6.3,6.9,10.3c1.7,3.9,2.5,8.1,2.5,12.6c0,4.5-0.8,8.7-2.5,12.6
				c-1.7,3.9-4,7.3-6.9,10.3c-2.9,2.9-6.3,5.2-10.3,6.9c-3.9,1.7-8.1,2.5-12.6,2.5s-8.7-0.8-12.6-2.5c-3.9-1.7-7.3-4-10.3-6.9
				c-2.9-2.9-5.2-6.3-6.9-10.3c-1.7-3.9-2.5-8.1-2.5-12.6C1467.7,1129,1468.5,1124.8,1470.2,1120.9z M1547.1,613.5
				c0-18.4-3.5-32.2-10.5-41.4c-7-9.2-19.2-13.8-36.5-13.8c-17.3,0-29.5,4.6-36.5,13.8c-7,9.2-10.5,23-10.5,41.4v165.8l24.3,247
				v-0.6c1.1,8.2,3.9,13.8,8.4,16.9c4.5,3,9.3,4.5,14.3,4.5c5,0,9.7-1.5,14.1-4.4c4.4-2.9,7.2-8.4,8.3-16.4l24.7-247V613.5z"/>
		</g>
	</g>
	<g class="st12">
		<path class="st13" d="M-145.4,729.2l-16.5-42.9c90.8-35,177.3-81.8,257.2-139.1c79.9-57.4,151.9-124.4,214-199.3
			c14.7-17.7,29.3-36.3,43.5-54.4C411,219.3,471.2,142.5,558.1,99.6C637.3,60.5,736.9,51.4,854,72.7c52.2,9.5,103.8,23.8,153.6,37.6
			c41.2,11.4,83.8,23.2,126,32c80.3,16.8,164.2,23.7,249.2,20.4c82.1-3.2,165.6-15.8,248.4-37.5c160.5-42.1,317.5-118.5,454-220.9
			l27.6,36.8c-141.2,106-303.7,185.1-469.9,228.6c-86,22.5-172.9,35.6-258.2,38.9c-88.8,3.4-176.4-3.7-260.4-21.3
			c-43.6-9.1-87-21.1-128.9-32.7c-48.9-13.5-99.4-27.5-149.6-36.6c-107.2-19.5-197.2-11.8-267.3,22.9
			C500.9,179.2,444,251.7,389,321.8c-14.4,18.3-29.2,37.3-44.3,55.4c-64.6,77.9-139.5,147.6-222.6,207.3
			C39.1,644.2-50.9,692.8-145.4,729.2z"/>
	</g>
	<g class="st1">
		<path class="st7" d="M-145.4,709.2l-16.5-42.9c90.8-35,177.3-81.8,257.2-139.1c79.9-57.4,151.9-124.4,214-199.3
			c14.7-17.7,29.3-36.3,43.5-54.4C411,199.3,471.2,122.6,558.1,79.6C637.3,40.5,736.9,31.5,854,52.8c52.2,9.5,103.8,23.8,153.6,37.6
			c41.2,11.4,83.8,23.2,126,32c80.3,16.8,164.2,23.7,249.2,20.4c82.1-3.2,165.6-15.8,248.4-37.5c160.5-42.1,317.5-118.5,454-220.9
			l27.6,36.8c-141.2,106-303.7,185.1-469.9,228.6c-86,22.5-172.9,35.6-258.2,38.9c-88.8,3.4-176.4-3.7-260.4-21.3
			c-43.6-9.1-87-21.1-128.9-32.7C946.5,121.1,896,107.1,845.8,98c-107.2-19.5-197.2-11.8-267.3,22.9
			C500.9,159.2,444,231.7,389,301.9c-14.4,18.3-29.2,37.3-44.3,55.4c-64.6,77.9-139.5,147.6-222.6,207.3
			C39.1,624.2-50.9,672.9-145.4,709.2z"/>
	</g>
	<g class="st12">
		<path class="st13" d="M2049,2199.9l1.6-79.2l12.6,0.3c39.5-67.6,102.1-112.8,190.7-137.6c84.7-23.7,179-25.9,270.1-27.9
			c45.1-1,87.6-2,126.4-5.6c61.3-5.7,105.3-16.8,142.6-35.9c26.3-13.5,47.5-31.1,63.1-52.3c14.5-19.8,23.9-42.3,27.8-66.9
			c9.5-59.4-13.6-123.8-61.8-172.4c-26-26.2-57-49.4-89.9-74c-62.2-46.5-126.6-94.6-157-166c-19.6-46.1-19.7-98.6-0.1-144
			c18-41.7,51-73.2,92.9-88.7c63.5-23.4,139.1-29.9,224.6-19.3c71.4,8.9,148.6,30.3,217.5,60.3l-8.8,20.2
			c-118.7-51.7-292.9-89.5-425.7-40.5c-36.2,13.4-64.7,40.6-80.3,76.8c-17.2,39.8-17.1,86,0.2,126.6c28.1,65.9,90,112.2,149.9,157
			c32.1,24,65.2,48.8,92.4,76.1c53.1,53.5,78.5,125,67.9,191.3c-9.3,58.2-45.7,106.3-102.6,135.4c-39.9,20.4-86.4,32.2-150.6,38.2
			c-39.6,3.7-82.5,4.6-128,5.7c-89.8,2-182.7,4.1-264.7,27.1c-43.9,12.3-79.9,29.2-110.2,51.8c-34.1,25.4-59.9,57.2-78.8,97.1
			L2049,2199.9z"/>
	</g>
	<g class="st1">
		<path class="st7" d="M2033.1,2199.9l1.6-79.2l12.6,0.3c39.5-67.6,102.1-112.8,190.7-137.6c84.7-23.7,179-25.9,270.1-27.9
			c45.1-1,87.6-2,126.4-5.6c61.3-5.7,105.3-16.8,142.6-35.9c26.3-13.5,47.5-31.1,63.1-52.3c14.5-19.8,23.9-42.3,27.8-66.9
			c9.5-59.4-13.6-123.8-61.8-172.4c-26-26.2-57-49.4-89.9-74c-62.2-46.5-126.6-94.6-157-166c-19.6-46.1-19.7-98.6-0.1-144
			c18-41.7,51-73.2,92.9-88.7c63.5-23.4,139.1-29.9,224.6-19.3c71.4,8.9,148.6,30.3,217.5,60.3l-8.8,20.2
			c-118.7-51.7-292.9-89.5-425.7-40.5c-36.2,13.4-64.7,40.6-80.3,76.8c-17.2,39.8-17.1,86,0.2,126.6c28.1,65.9,90,112.2,149.9,157
			c32.1,24,65.2,48.8,92.4,76.1c53.1,53.5,78.5,125,67.9,191.3c-9.3,58.2-45.7,106.3-102.6,135.4c-39.9,20.4-86.4,32.2-150.6,38.2
			c-39.6,3.7-82.5,4.6-128,5.7c-89.8,2-182.7,4.1-264.7,27.1c-43.9,12.3-79.9,29.2-110.2,51.8c-34.1,25.4-59.9,57.2-78.8,97.1
			L2033.1,2199.9z"/>
	</g>
</g>
</svg>
